Input #0, mov,mp4,m4a,3gp,3g2,mj2, from '/home/hbattu/projects/huberman-gpt/huberman-audio/mp3/tmp2p4nbvfn.mp4':
  Metadata:
    major_brand     : dash
    minor_version   : 0
    compatible_brands: iso6mp41
    creation_time   : 2023-04-09T12:43:10.000000Z
  Duration: 02:04:47.11, start: 0.000000, bitrate: 129 kb/s
    Stream #0:0(eng): Audio: aac (LC) (mp4a / 0x6134706D), 44100 Hz, stereo, fltp, 0 kb/s (default)
    Metadata:
      creation_time   : 2023-04-09T12:43:10.000000Z
      handler_name    : ISO Media file produced by Google Inc.
Stream mapping:
  Stream #0:0 -> #0:0 (aac (native) -> mp3 (libmp3lame))
Press [q] to stop, [?] for help
[graph_0_in_0_0 @ 0x5584bec17180] tb:1/44100 samplefmt:fltp samplerate:44100 chlayout:0x3
Output #0, mp3, to '../huberman-audio/mp3/6ZrlsVx85ek.mp3':
  Metadata:
    major_brand     : dash
    minor_version   : 0
    compatible_brands: iso6mp41
    TSSE            : Lavf58.29.100
    Stream #0:0(eng): Audio: mp3 (libmp3lame), 44100 Hz, stereo, fltp, delay 1105 (default)
    Metadata:
      creation_time   : 2023-04-09T12:43:10.000000Z
      handler_name    : ISO Media file produced by Google Inc.
      encoder         : Lavc58.54.100 libmp3lame
No more output streams to write to, finishing.
size=  116987kB time=02:04:47.11 bitrate= 128.0kbits/s speed=82.2x    
[AVIOContext @ 0x5584beb06900] Statistics: 0 seeks, 183 writeouts
video:0kB audio:116987kB subtitle:0kB other streams:0kB global headers:0kB muxing overhead: 0.000289%
Input file #0 (/home/hbattu/projects/huberman-gpt/huberman-audio/mp3/tmp2p4nbvfn.mp4):
  Input stream #0:0 (audio): 322443 packets read (119793789 bytes); 322443 frames decoded (330181632 samples); 
  Total: 322443 packets (119793789 bytes) demuxed
Output file #0 (../huberman-audio/mp3/6ZrlsVx85ek.mp3):
  Output stream #0:0 (audio): 286616 frames encoded (330181632 samples); 286617 packets muxed (119794207 bytes); 
  Total: 286617 packets (119794207 bytes) muxed
[AVIOContext @ 0x5584beb336c0] Statistics: 2 seeks, 458 writeouts
[AVIOContext @ 0x5584beb0f880] Statistics: 121171225 bytes read, 0 seeks
